<svg version="1.0" xmlns="http://www.w3.org/2000/svg" width="1706.67" height="1285.33" viewBox="0 0 1280 964"><path d="M703 2.6c-1.3 3.4-1.3 12.6.1 16.1 1.6 4.2 6.8 9.3 12.4 11.9 5.8 2.7 6.1 2.5 7-5.7 1.3-11.1-3.1-19.7-11.7-23.3-5.2-2.2-6.7-2-7.8 1zM746.5 10.9c-5.4 1.4-10.5 4.3-13.2 7.5-2.9 3.5-6.2 10.2-6.3 12.8 0 2.7 10.2 6.1 18.5 6.2 11 .1 19.2-5.2 26-16.8 1.5-2.5 2.4-4.9 2.1-5.4-1.6-2.7-21.4-5.8-27.1-4.3zM650.5 12.9c-2.8.6-3 .9-2.8 5.4.2 6.1 3.7 12.3 9 16.1 3.5 2.4 5.4 3 11.9 3.4l7.7.5-.7-3.9c-1.9-10.6-8.7-19.4-16.1-21.3-4.7-1.2-4.6-1.2-9-.2zM606.6 21.7c-8.9 17.6-6.8 32.5 6.3 44.5 3.2 2.9 7.2 6.1 8.9 7.1l3.1 1.8 1.7-3.8c10.3-24 7.7-40.8-7.8-50-8.8-5.2-9.3-5.1-12.2.4zM720.4 40.5c-.7 1.9-1.4 6-1.4 9.1 0 8.8 4.2 14.8 13.7 19.7l3.1 1.7 1.1-3.3c4.5-12.6 1.3-24-8-28.7-5.3-2.8-6.8-2.5-8.5 1.5z"/><path d="M686 54.4c-21.7 8.5-39.7 20.2-55.6 36-21.7 21.8-34.8 47-40.8 78.4l-2.1 11.3-6.5-8.8c-16.2-21.8-39-39.9-62.5-49.4-4.9-2-8.9-4.2-8.7-4.8.8-3.5.2-16.4-.9-20.2-1.8-5.7-7.3-11.2-13.1-12.8-7-2-8.2-1.4-9.2 4.6-1.7 10 1.9 19.7 9 24.4 3.4 2.2 2.2 2.4-5.7.8-7.3-1.4-30.9-1.3-40.6.1-8.1 1.2-18.2 3.6-19.1 4.5-.3.3 2.8.5 6.9.5 10.9 0 28 1.7 39.8 4.1 17 3.3 42.8 12.8 40.5 14.8-.5.4-2.9 2.3-5.3 4.1-7.6 5.9-13.6 17.8-12.9 25.7l.3 3.8 3.3-6.3c8.4-16.1 24-24.7 32.8-18 21.9 16.6 36.3 34 46.3 56.3l4.5 10 1.8 26.5c.9 14.6 1.7 27 1.7 27.7.1.8-1.7.9-5.8.6-9.2-.9-9.4-.7-7 7.9 2.5 9 6.8 16 12.3 19.7l4.1 2.9 2.8 19.8c1.5 11 6.1 39.9 10.1 64.4 4 24.5 7.3 44.6 7.1 44.8-.1.1-3.7-5.5-8-12.5-12.3-20.1-51.5-82.8-58.3-93.3-5.3-8.1-5.9-9.6-4.4-10.2.9-.4 3.8-1.4 6.3-2.3 7.2-2.6 14-8.3 17.2-14.6 3-5.9 4.4-14.4 3.3-20.3-.7-3.5-.8-3.6-5.4-3.6-7 0-17.9 2.6-22.6 5.4-4 2.3-11 9.3-13.1 13-.8 1.5-3-1.2-13.2-16.4l-12.2-18.1 4.7-5.9 4.7-5.9 7 .6c6.7.5 11.3-.5 19.7-4.1 1.3-.6 1.8.2 2.9 4.9 2.4 10.8 9.3 18.5 18.3 20.5 4.5 1 11.2.5 12-.9.2-.3 0-3.6-.5-7.3-1.3-10.8-5.9-17.6-14.4-21.5-2.2-1-6.8-4.8-10.3-8.4-5.8-6.1-10.9-9.3-19.4-12.2-1.4-.5-1.5-1.2-.6-4.9 1.1-5 .5-20.7-.9-23.2-.8-1.4-1.3-.1-2.2 5.6-1.6 9.6-5.2 21.9-6.5 22.3-.6.1-2.9.8-5.2 1.4-5.1 1.4-16.4 8.6-16.4 10.5 0 .8 1.5 3.4 3.4 5.9l3.4 4.4-3.9 2.2c-3.7 2.1-3.9 2.1-4.5.4-.4-1-1.7-4.2-3-7.2l-2.4-5.3-3.5 2.6-3.5 2.7-9.7-7.5c-9.4-7.2-26.9-17.3-33.8-19.6-3-1-3.6-1.8-5.5-7.8-4.7-14.5-11.1-24.4-19.6-30.2l-4.6-3.2 3-3.2c5.1-5.3 6.6-9.4 6.6-17.1 0-5.7-.5-8.1-2.8-12.7-4.8-9.6-5.4-9.8-11.5-3.3-8.8 9.3-12.3 20.5-9.2 28.8.6 1.6 1.1 2.9 1.1 3 0 .2-1.8.1-4-.1-2.3-.2-6.7-.1-9.8.3l-5.7.8 8.8 1.8c15.9 3.2 27 10.2 34.3 21.5 2.9 4.5 7.7 16.4 7 17.2-.2.1-3.2-.5-6.7-1.3-3.5-.9-13.2-1.9-21.5-2.2l-15.1-.6-2.1-4.8c-1.1-2.7-2.5-4.9-3-4.9-1.7 0-6.3 6.1-6.9 9.1-.4 2.4-1.3 3.1-4.7 3.9-2.2.5-6.9 1.8-10.3 2.9-4.2 1.3-6 1.5-5.7.7.5-1.3-11.7-7.4-18.6-9.4-9.4-2.8-22.1-2.2-28.9 1.3-2.1 1.1-.9 1.3 9.5 1.7 9.8.4 12.8.8 16.9 2.8l5 2.3-7 .8c-12.2 1.2-21.5 5.4-32.1 14.5l-5.2 4.4-1.8-2.8c-2.8-4-2.5-20.5.5-28.6 1.1-3.3 1.9-6.1 1.8-6.3-.8-.7-5.8 7.6-7.7 12.4-1 2.7-2.2 7.6-2.5 10.9-.8 6.5.9 20.4 2.6 21.5.6.4-.8 3.5-3.6 7.8-9.3 14.4-15.3 30.8-17.6 47.8-.6 4.8-1.3 9-1.5 9.2-.7.7-10.4-7.2-13.4-10.9-1.7-2.1-4.3-6.5-5.8-9.7-2.5-5.4-2.7-6.7-2.7-19.1v-13.3l-1.8 4.3c-4.8 11.3-4.7 23.3.2 33.3 3.2 6.5 11.8 15.7 19.1 20.5l4.5 3 1.7 11.5c2 13.3 6.9 28.7 12.8 40.5l4.2 8.3-4.3 4.3c-8.7 8.8-24 12.6-43.1 10.5-5.6-.6-10.3-.9-10.5-.7-1.1 1.1 11.4 5.9 18.8 7.2 12.6 2.2 27.5-.3 45.9-7.9 1-.5 2.8 1.1 5.7 4.9l4.2 5.6-3 5.6c-2 3.7-2.3 4.8-1 3 6.1-7.6 4.1-8.5 18.1 8.4 15 18.2 42 49.7 73.7 86 12.8 14.6 23.3 26.9 23.3 27.2 0 .3-15.3-7.1-34.1-16.4-60.9-30.5-85.5-41.7-121.2-55.1-23.1-8.6-26.9-10.9-38.4-23.3s-20.3-26.5-25.8-40.9c-3.9-10.5-3.2-14.8 3.7-21.4 4.1-4 10.3-6.8 18.7-8.4 7.2-1.4 6.6-2.5-2.1-3.5-7-.8-14.8 1.4-21.6 6l-5 3.5-.6-2.7c-.3-1.5-.9-8.3-1.2-15.2-.7-14.9 1.1-31.1 5.5-48.1 1.7-6.3 3.3-12.5 3.6-13.9 1-3.8-5.2 6.2-9.6 15.5-4.2 8.9-8.3 22.3-10 32.4-1.5 8.7-1.5 28.9 0 37.2 3.1 18.6 11.5 38.5 23.5 55.9 3.5 5.2 6.3 9.6 6.1 9.8-.1.2-5.2-.2-11.1-.9-39.9-4.3-77.8 8.8-107.9 37.3-8.6 8.1-20.5 22.3-20.5 24.3 0 .5 1.5-.5 3.3-2.2 14.6-13.8 42.1-29 62.7-34.7l9-2.5v3.8c0 9.5-11.2 24.7-25.9 34.9-8.1 5.7-7.4 6.6 2.5 3.2 15.2-5.2 28.8-19.3 36.2-37.2l2.7-6.7 6.2-.7c8.4-.9 26.2 1 39.3 4.2 6.5 1.5 20.6 6.5 35.2 12.3l24.3 9.9.3 11c.3 13.5-1.4 22.6-6.3 32.8-4.1 8.4-6.3 9.9-13 8.8-4.6-.7-8.6-2.6-13.3-6.1-4.3-3.2-5-2.4-1.5 1.7 2.7 3.3 13.3 9 16.6 9 2.7 0 2 1.5-2.4 5.5-8.3 7.5-24.8 16.3-33.9 18.2-5.8 1.1-3.9 2 3.3 1.6 16.6-1 30-6.7 40.8-17.4 5.3-5.2 7.7-8.6 11.2-16 5.2-10.9 7.2-18.3 8.8-32.9a269 269 0 011.4-10.8c.4-.5 106.3 45.3 107.7 46.7.4.3-3.9.4-9.5.3-23.1-.8-60 7.4-81.2 18.1-14.9 7.4-24.2 14.8-32.4 25.7-3.1 4.1-6.5 9.4-7.5 11.7-1 2.4-2.2 4.3-2.7 4.3-.4 0-4.7-1-9.6-2.1-5.7-1.4-12.8-2.2-20.3-2.4-11-.2-11.8-.4-16.5-3.4-10.6-6.7-24.4-9.6-33.5-7.1l-4.5 1.3 9.2 1.3c10.1 1.4 17.9 4.3 21.3 7.9l2.1 2.3-7.3 3.5c-9.4 4.6-19.1 13.4-24.4 22.3-4.2 7.1-7.8 15.3-7.1 16.1.3.2 2.1-1.8 4.1-4.6 9.6-13.1 26.3-24.9 40.2-28.5 8.7-2.3 23.2-2.1 33 .4 4.3 1.1 8.2 2.4 8.6 2.8.8.8-7.4 27.8-13.5 44.2-3.6 9.7-9.4 23.7-16.2 39.2l-3.8 8.6-6.8 1.6c-12.8 2.9-22.4 8.8-29.1 18-4.2 5.9-3.4 6.2 2.8 1.1 3.1-2.5 7.6-5.7 9.9-7 5.1-3 15.1-5.3 16.6-3.8.8.8-1.4 6-7 16.9-7.1 14-10.9 20.9-23.5 42.9-3.4 5.9-2.2 4.8 6.6-6 17.6-21.6 35-46.9 46.6-67.6 6.5-11.6 14.9-29.2 16.6-34.7 1.1-3.4 2.4-2.7 3.6 2 .6 2.4 1.3 5.1 1.6 6 1.1 3.8.5 22.7-1 30.2-.9 4.4-1.4 8.1-1.2 8.4 1 .9 7.5-14.8 8.7-20.6 1.8-9.4.7-26.8-2.4-37.1l-2.5-8.4 2.5-8.6c5.2-18 18.3-38.2 32.5-50 8.1-6.8 25.9-16.2 35-18.5l5.7-1.4 2.4 3.2c11.9 15.8 20.6 39 22.8 61.2 1 9.7 1 11.4-.5 14.2-4 7.7-15.1 12-27.9 10.7-7.9-.7-8.1.1-1 3.6 6 2.8 17.6 3.1 23.7.6 2.1-1 4.2-1.7 4.6-1.7 1.7 0-2.9 19.8-7.7 32.5-4.4 11.9-14.1 30.1-22.1 41.5l-1.7 2.5 3.1-2.3c5.3-3.7 17.1-17 22.9-25.7 14.4-21.6 21.5-46.7 20.2-71.5-.4-6.3-.9-13.4-1.3-15.8l-.7-4.2h6.1c11.6 0 23.6 6.1 38 19.5 6 5.6 7.1 6.3 6.2 3.9-6.3-16.6-25.2-30.7-48.8-36.4l-5.1-1.2-2-8.7c-1.1-4.8-2.4-13.3-2.7-18.9l-.7-10.2h8.5c31.7 0 79.1 18.7 125.3 49.5 27.9 18.6 51.5 30.4 99 49.6 41.5 16.7 55 22.7 69.5 31 12.2 6.9 11.3 5.3 13 21.4 2.8 25.3 7.9 57 13.1 81.4l3.1 14.4-5.5 13.1c-14.1 33.8-17.2 49.8-17.2 88.1.1 25.1.5 31 4.2 56.7l1.7 11.8h124.4l-8.5-8.3c-20.3-19.6-36.5-46.4-42.4-69.9-3-11.9-3.7-36.3-1.5-52.1 3.7-26 10.8-58.1 17.8-79.7 9.5-29.6 20.1-52.8 36.6-80.5 19.1-32 30.4-55.9 41.1-86.7 7.3-21.3 13.8-36.1 23.8-54.3 18.5-33.9 38.5-59.5 55.6-71 2.8-1.9 5.4-3.2 5.8-2.9 2 1.2 10.5 15.4 15 24.9 4.3 9.1 4.8 10.9 3.7 12.3-.7.9-3 3.7-5 6.2-5.7 6.9-12.5 19.6-15.5 28.5-2.2 6.7-2.6 9.8-2.6 19 0 6.8.5 12.1 1.3 14 1.2 2.9 1.3 2.8 2.5-5 2.8-18.6 8.2-32 16.2-40.6 4.1-4.4 10-8.7 10.7-7.7.2.2 1.8 3 3.6 6.3 13.3 23.9 33.6 43.8 56.6 55.3 15.1 7.5 33.5 12.9 47.4 13.7l8.5.6-4-1.7c-2.2-.9-6.9-2.8-10.5-4.2-19-7.3-42.5-21.6-56-34l-7.5-7 4.5-1.2c12.1-3.3 20.7-11 24.9-22.3 1-2.6.5-2.4-4.6 2.3-11.2 10-23.2 13.8-32.1 10.1-7.9-3.3-21.9-30.8-27.1-53.3-1.7-7.4-4.6-31.6-3.9-32.4 1-1 11.2-4.8 17.7-6.5 10.9-3 33.8-3.8 45.2-1.4 18.4 3.7 34.9 10.9 47.8 20.8 8.1 6.2 8.5 6.8 11.1 13.8 7.9 21.8 20.6 37.6 36.4 45.4 3.8 2 7.1 3.4 7.3 3.1.2-.2-3.1-3.7-7.3-7.7-10-9.7-15.7-17.1-20-26.3-5.1-10.7-4.5-11.5 4.6-6 16.6 10.1 47.1 23.8 71.5 32.1 17 5.7 60.4 17.8 61.2 16.9.1-.1-5.9-2.8-13.5-6-7.5-3.2-23.8-10.7-36.1-16.7l-22.4-10.9 1.9-2.1c5-5.6 17.5-8.4 30.4-7 4.1.5 7.7.7 7.9.5 1-.9-9.6-4.7-15-5.4-9.3-1.3-22.9 1.3-32.8 6.4-3.2 1.7-3.2 1.7-11.9-3-13.9-7.6-29.6-17-44.7-27-16.1-10.6-37.5-26.2-37.5-27.4 0-1.9 11.7-15.4 17.3-20 13.6-11 26.9-15.4 46.2-15.3 12.3.1 22 1.8 33 5.8 3.7 1.3-2.6-3.2-9.5-6.9-14.3-7.5-31.3-10.3-44.3-7.2-8.6 2-8.7 2-8.7-.5 0-4.8 5.4-13.5 13.2-21.2 4.3-4.2 7.4-7.7 6.8-7.7-1.9 0-9.4 4.2-13.7 7.8-5.4 4.4-11.3 13.2-14.8 22-2.5 6.4-3.2 7.2-9 11.1-3.5 2.3-11 9.1-16.7 15.1l-10.4 11-8-3.4c-26.8-11.3-54.1-9.9-90.2 4.5-22.4 8.9-43.1 20.6-56.1 31.7l-4.4 3.7 2.5-4.5c1.5-2.5 11.4-19.8 22.1-38.5 30.2-52.8 41.2-71.5 41.8-71.2.3.1 3.4 3.6 7 7.7 7.5 8.7 20.5 19.4 28.7 23.8 18 9.6 38 10.6 56.9 3 5.9-2.4 20.7-11.7 19.9-12.5-.2-.3-1.4.1-2.6.7-8.4 4.5-31.3 8.6-42.1 7.5-8.9-.9-9.5-1.4-6.3-5.6 3.6-4.8 6-10.6 6.9-16.7.8-6.3-.6-6.9-2.2-1-2 7.2-7.3 15-12 17.6l-4.3 2.3-6.4-3c-12.6-6.1-23.4-15.8-32.4-29.3l-4.5-6.8 11.3-18.7c6.3-10.4 13.6-22.2 16.4-26.3 10.9-16.5 24.2-30.3 39.9-41.7l8-5.7 3.6 2.2c22.7 14.1 46.6 17.7 64.7 9.7 3-1.3 5.4-2.5 5.4-2.7 0-.2-6-.3-13.3-.4-15-.1-23.8-1.8-32.8-6.6-5.2-2.7-12.8-9.3-11.8-10.2.2-.2 4.5-1.9 9.4-3.8 19.4-7.6 38.5-10.8 64.7-10.9l18.3-.1-7.5-2.4c-23.3-7.5-54.9-8.6-80-3-25.3 5.7-46.9 17.3-68.1 36.7l-8.6 7.8-.6-14.7c-1.1-29.3-8.8-54.3-23.5-76.7-6.5-10-25.8-29.1-36.2-35.8-9.2-5.9-18-10.6-26.3-13.8-6.1-2.4-6.2-2.5 6.8 7.9 18.4 14.7 34.1 32.1 44.4 49.2l5.1 8.5-8 .6c-9.9.8-19.2 5-24.5 11.1-1.9 2.3-3.3 4.3-3.1 4.5.1.2 3.2-1 6.7-2.7 12.8-5.9 22.9-6.3 31.1-1.1 4 2.6 4.6 3.5 6.6 10.2 3.6 12 5.2 22.4 5.5 34.7l.2 11.6-18.6 4.2c-20.1 4.5-58 11.7-58.6 11.1-1.3-1.4 2.1-4.3 10-8.4 13.3-7 26.3-20.5 29.2-30.3.6-2.1-.2-1.6-4.6 2.6-4.4 4.2-6.3 5.3-10 5.8-6.8 1-15.7 5.6-22.3 11.7l-5.9 5.4-6.6-.1c-8.8-.1-10.7-1.2-11.5-6.9-2.6-17-9.4-36.9-17.6-51.2l-4.9-8.4 1.6-4.2c3.9-10.7 5.4-21.3 4.3-30.3-1.6-12.9-10.3-25.5-22.2-31.9l-5.3-2.9 6.1 6.7c11.9 13 16.8 26.8 14.6 41-.6 4-1.8 8.9-2.6 10.9l-1.5 3.6-8.8-9c-12.8-13.1-32.1-25.3-49.3-31.1-2.5-.9-4.4-2.1-4.2-2.7.5-2.3-7.5-15.7-13-21.6-6-6.3-14.7-11.7-20.8-12.8l-3.5-.6 2.5 1.7c15.2 10.9 21.8 18.6 22.7 26.5l.5 4.4h-12.3c-9.2 0-14 .4-18.4 1.8-15.2 4.6-27.8 14.4-37.5 29.2-2.8 4.2-5 8-5 8.5s2.1-1.2 4.8-3.8c10-9.7 22.8-16.6 37.1-20 9.7-2.2 28-1.3 38.8 2 15.9 4.8 32.5 16.6 44.7 31.9l6.6 8.3-9 1.8c-4.9.9-11.5 2.7-14.6 3.8-8.2 3.1-19.9 11.3-24.7 17.4-2.3 3-4.5 5.4-4.9 5.4-.4.1-.9-.8-1.3-1.8-.4-1.5.7-3.1 4.5-6.7 3.1-2.9 6.3-7.4 8.5-11.7 3.1-6.1 3.5-7.9 3.5-14.5 0-8.5-1.6-15.2-3.7-15.2-3.3 0-16.2 7-21.2 11.5-10.2 9.3-14.1 18.7-14.1 34.4 0 5.5.4 10.2 1 10.6.5.3 3.7-.8 7-2.5s6.5-2.8 6.9-2.6c.5.3 1.4 2.6 2 5 .9 3.8.8 5.2-.8 9.3-2.9 7.3-5.3 19.4-6 30.1l-.6 9.6-4 .8c-2.2.4-6.5 1.5-9.6 2.4l-5.6 1.6-7.9-5.7c-4.3-3.1-10.5-7.2-13.7-9.2l-5.8-3.5 3.8-2.8c9.1-6.7 17.2-17.5 22.2-29.4 3.9-9.4 4-12.5.2-6.5-7.3 11.6-19.7 23.6-31.3 30.3l-4.8 2.8v-4.9c0-2.6-.5-6.8-1.1-9.3-1.1-4.7-5.7-13.5-6.6-12.6-.3.2.3 2.9 1.3 5.8 1.7 5.1 2.5 17.1 1.2 18.4-.4.3-3.9-.5-7.8-1.7l-7.2-2.4-2.8-6c-3.1-6.8-6.9-10.7-11.9-12.4l-3.5-1.1 4.6 4.4c4.1 3.9 8.1 11.7 6.7 13-.2.2-2.9 0-5.9-.6-5.5-1-27.6-.5-31.6.7-1.9.6-2.2.2-2.8-5.1-.3-3.1-.5-5.8-.3-6 .1-.2 2.1.1 4.4.6 2.9.7 5.6.5 9.9-.6 3.2-.8 6-1.7 6.2-1.9.9-.9-4.9-9.3-8.7-12.8-3.4-3.1-9.2-5.7-12.7-5.7-.7 0-1.4-3.3-1.7-8.3-1.9-24.3.9-46.9 8.5-67.8l2-5.7 6.6-.7c25.2-2.5 43.5-12.3 54.4-28.9 2.1-3.3 3.6-6.1 3.3-6.4-.2-.2-2.6 1.3-5.2 3.5-7.2 6-16.4 11.7-24 14.8-5.2 2.2-8.9 2.9-15.8 3.2-4.9.2-9.6 0-10.4-.5-1.1-.8-.1-3 5.1-10.8 12.3-18.8 30.4-36.6 51.1-50.5 4.9-3.2 8.2-5.9 7.5-5.9-.7.1-5.1 1.6-9.8 3.4zm128.4 149.8c8.6 17.7 12.6 35.3 12.6 55.9v10.6l-6.7.7c-3.8.3-16.9.8-29.3 1.1-12.4.3-26.4.7-31.2.9l-8.8.3v-17.4l12.3-.6c6.7-.3 14.6-1.3 17.6-2.1 16.7-4.6 27.5-15.1 31.1-30.3.6-2.9.9-5.6.6-6.1-.3-.5-3.6-1.2-7.4-1.6-19.5-1.9-38.6 7.2-47.8 23-1.4 2.4-2.8 4.4-3 4.4-.7 0 3.7-10.3 5.9-14 8.7-14.4 21.4-25.2 38.7-32.6 4.1-1.8 8.1-3.3 8.7-3.3.7-.1 3.7 5 6.7 11.1zM327.7 217c-10.8 8.2-19.1 20.6-21.8 32.8-1.1 4.8-1.5 5.3-5.1 6.4-4.9 1.4-4.9 3.5-.3 11.2 2.7 4.6 3.5 6.9 3.5 10.7 0 2.7.5 4.9 1 4.9.6 0 1-1.6 1-3.5 0-4 1-4.3 4.8-1.6 5 3.4 12.1 5.1 21.8 5.1 7.7 0 19-1.4 20.2-2.5.9-.8-4.3-8.9-8.8-13.8-6.2-6.8-15.2-11.6-23.3-12.4-3.1-.3-5.7-.9-5.7-1.3 0-1.6 8-12.7 11.8-16.3l3.9-3.8 1.3 4.4c2.1 7.7 10.8 13.9 21.6 15.4l4.7.6-.5-6c-.3-3.3-1.5-7.8-2.7-10.1-2.3-4.5-9.2-10.2-12.3-10.2-7.9 0 11-9.2 25.5-12.5l2.9-.6-2 2.8c-2.6 3.9-3.3 7.3-2.2 11.4 1.7 5.8 2.3 6.3 5.7 4.6 5-2.6 6.4-7.1 4.9-15.5-.6-3.4-.5-4.2.7-4.2.8 0 2.2 1.1 3 2.4 2.1 3.1 7.6 5.6 12.4 5.6 2.1 0 6.3-1.2 9.3-2.6l5.4-2.5 8.3 2.6 8.3 2.6v4.9c0 9 .9 9.5 9.2 5.1l5.5-2.8 4.2 2.5 4.2 2.5-6.1 3.3c-6.8 3.6-14.9 9.6-19.4 14.3-3.6 3.8-4 3.8-5.4.6-1.5-3.2-1.5-8.5-.2-12.1 1.4-3.6.5-4.2-1.6-.9-2.6 4-3.2 9.6-1.7 15.5l1.3 5.2-5 7.5c-11.8 17.7-22 46.3-25.5 71.5l-.6 4.7-5.7.6c-8.8.9-25 4.2-32.3 6.5l-6.7 2.1-4.4-3.1c-4.8-3.4-10.5-4.6-16.2-3.6-5.1 1-4.5 2.6.9 2.6 4.9 0 11.9 3 12.8 5.4.4 1.1-1 2.4-5.1 4.6-3.1 1.6-8.1 4.8-11.1 7.1-2.9 2.2-5.7 3.7-6.1 3.2-.4-.4-2.9-3.8-5.7-7.4-10.2-13.5-17.4-27.5-22-42.4-2.5-8.3-2.7-10.3-2.7-27-.1-19.6.8-24.9 6.5-38.6 7-17.1 22.4-32.3 39.2-38.5 9.2-3.4 9.7-2.9 2.4 2.6zm569.8 18.9c-.9 1.5-14.6 10.4-15.1 9.8-.5-.4 14.1-10.7 15.2-10.7.3 0 .3.4-.1.9zm-439.8 5c8.8 7.3 15.9 15.3 18.4 20.6 1.2 2.6 3 5 4 5.3 2.1.8 10.5 12.4 23.5 32.7 25 38.8 49.1 83.1 89.4 165 20.6 41.7 28.7 56.4 36.7 65.9 1.3 1.6 2.2 3.1 1.9 3.3-.9 1-18.2-8.9-26.6-15.1-15.6-11.7-35.6-32.8-51.7-54.6-8.2-11.2-21.6-31.1-21.1-31.4.2-.1 1.8-.8 3.6-1.5 1.7-.8 3.2-1.7 3.2-2.1 0-.4-1.1-2.4-2.5-4.4-2.2-3.3-2.4-4.2-1.5-7.5 3.5-12.9 4.1-29.5 1.6-40.4-1.6-6.7-5.9-16.4-9.1-20.2-1.6-1.9-1.6-1.9-1 1.5.4 1.9 1.3 6.9 2 11 1.8 9.2 1.9 23.1.3 30.2l-1.1 5.3-1.2-4.5c-.7-2.5-2.2-6.5-3.4-8.9l-2.3-4.3-3.8 3.7c-2.1 2.1-4.4 5.1-5.1 6.6-.6 1.6-1.4 2.9-1.8 2.9-.3 0-2.2-2.4-4.1-5.3-1.9-2.8-5.4-7.5-7.8-10.4-3.5-4.4-4.1-5.7-3.2-7.3 1.7-3.2 1.2-3.9-4.7-5.6-3.7-1.1-7.6-3.3-11.4-6.4-10.7-8.9-21.5-14.4-33.1-17-4.1-.9-5.8-1.8-5.8-2.9 0-1.3-.2-1.3-.9-.2s-2.2 1.2-8.7.2c-4.4-.7-13.6-1.5-20.6-1.8-7.1-.3-12.8-.8-12.8-1.1 0-.2 1.4-3 3.1-6.3 5.6-10.4 16.9-22.5 29.8-31.7 4-2.9 4.1-3.2 1.9-3.2-7.2 0-21 6.6-29 13.8-2.1 1.9-3.8 2.9-3.8 2.3 0-2.5 7.5-23.2 11.6-32 8.5-18.1 22.5-36.4 34.9-45.4 2.8-2 5.3-3.7 5.7-3.7.4 0 3.3 2.2 6.5 4.9zm181.8 11.6c6.9 1.2 11 2.3 24 6.3 1.8.5 1.8.6-.5 1.3-3.8 1.1-13.7 1-21-.1-7.6-1.2-20.9-5.4-23.6-7.5-1.7-1.3-1.1-1.4 5.6-1.5 4.1 0 11.1.7 15.5 1.5zm308.3 6.2a190 190 0 01-2.9 16.4c-1.8 7.8-3 10.3-10.8 22.1-25.7 39.3-38.4 61.9-75.1 134.3-10.6 20.9-19.7 38.4-20.2 39-.6.6-.7-1.1-.4-4.5.3-3 1.5-17.4 2.6-32 2.9-38 1.9-33.9 9.6-38.4 3.6-2.1 6.3-4 6.1-4.2-.1-.2-3.1.5-6.6 1.6l-6.2 1.9.5-5.2c.5-4.7 1.8-22.2 4.6-64.6 1-15.3 1.5-17 4.8-17.1.7 0 1-.5.7-1-.3-.6-1.5-1-2.6-1-1.8 0-1.9-.5-1.3-11.3.4-6.1.9-11.5 1.3-11.9.3-.3 7.6-2.4 16.1-4.6 19-4.9 44.4-13.4 63.3-21.2 7.8-3.2 14.9-5.8 15.8-5.9 1.3-.1 1.4.9.7 7.6zm-88.2 7.2c-.7 1.1-7.6 2-7.6 1 0-.4 1-1 2.3-1.2 4-.8 5.8-.7 5.3.2zm-229.1 2.9c10.2 2.3 35.8 2.3 44.4-.1l6.4-1.7 4.6 2.6c7.5 4.3 22.1 13.9 22.1 14.5 0 1.5-9.1 4.9-15.7 6-4.1.6-9.8 2.4-13.5 4.2l-6.3 3.2 7.8.3 7.8.3-6.8 7.4-6.7 7.4-2.6-2.9c-1.4-1.6-3.7-3.2-5.2-3.6-2.7-.6-2.8-.5-2.8 3.6 0 4.3 1.3 7.8 3.7 9.5 1.1.9.7 2.1-2.5 6.5-5.1 7.2-15.6 25.5-19.4 33.8-1.7 3.6-4.1 8.1-5.5 9.9-1.4 1.7-2.2 3.7-1.8 4.3.4.6-.3 3.8-1.4 7.3-1.1 3.4-2.3 7.9-2.7 10-.3 2-.9 3.9-1.3 4.2-.6.3-5.1-34.7-5.1-39.3 0-.7 1.4-1.2 3.5-1.2 4.7 0 9.7-2.6 12.3-6.4 2.7-4 2.8-6.2.3-7.6-3.1-1.6-12.3-1.2-14.9.6-1.3.9-2.5 1.4-2.7 1.3-.1-.2-1.9-15.9-3.9-34.9s-3.9-36.2-4.2-38.4c-.6-3.9-.6-3.9 2.2-3.1 1.6.4 6.1 1.4 9.9 2.3zm196.1 20.4c-.3 1.3-.6 4.4-.6 7 0 3.2-.4 4.8-1.2 4.8-2.1 0-14-5.9-17.8-8.8l-3.5-2.7 9.5-1.1c14.8-1.7 14.3-1.7 13.6.8zm-46 .8c2.2 0 2.2.1-1.2 5.7-8.8 14.6-8.5 31.2.7 47.3l3.2 5.5 4.6-5.2c9.7-10.8 16-24.9 16.1-35.7 0-5.1.2-5.7 1.8-5.1 1.7.7 15.5 5.4 18 6.1.7.2 1.2 2 1.2 4.6-.1 9-4.7 50.5-8.5 75.5-.8 5.7-1.5 10.7-1.5 11.2 0 1-16.7 2.7-17.6 1.8-.4-.3.5-2.1 1.9-3.9 6.5-8.6 11.7-23.1 11.7-32.4v-4.8l-5.9 11.9c-6 12.2-12.8 21.6-19.1 26.6-3.2 2.6-4 2.8-9.2 2.2l-5.8-.6v-3.5c0-1.9 1.2-5.9 2.6-8.9 3.2-6.5 4.2-16.7 2.3-23.3l-1.3-4.5-1 5.7c-1.5 8-2.6 8.2-2.6.6 0-12.6-5.1-33.2-11-44.7-4-7.8-5.7-10.1-13.9-19.1l-7.2-7.9 5.8-1.7c9.1-2.7 21.3-4.4 27.7-3.9 3.2.3 6.9.5 8.2.5zm-46.9 20.6c6.6 4.4 12.3 11.8 15.2 19.6 2.4 6.7 6.4 25.5 5.6 26.7-.2.5-3.7 1.7-7.6 2.6-16.5 4.1-30.8-.4-44.1-13.8l-7.1-7.2 2.8 5.5c8.4 16.8 22.7 25.1 40.5 23.6 4.1-.3 9.6-1.3 12.1-2l4.6-1.4.7 7.5c.3 4.2.6 10.9.6 15 0 7.1-.1 7.4-2.7 8.4-6.8 2.7-30.5-8-48.7-21.8-7.5-5.8-21.1-19.4-25-25.1l-2.9-4.2 3.4-5.6c6.5-10.8 22.7-26.5 34-32.9l4.2-2.3 4.4 1.9c2.5 1 6.9 3.5 10 5.5zM383 358.2c0 2.4.5 6.2 1 8.6 1 4 .8 4.7-2.2 9.3l-3.2 5-2.6-4.8c-3.8-7.4-6.9-11-12.8-15.1l-5.4-3.7 3.8-.8c3.3-.7 7.8-1.3 20.2-2.6.8-.1 1.2 1.4 1.2 4.1zm23-3.8c0 .4-9.9 6.6-10.6 6.6-.2 0-.4-1.6-.4-3.5V354h5.5c3 0 5.5.2 5.5.4zm30 8.1c-4 10.5-10 17.3-19.2 21.9-3.9 2-7.9 3.6-9 3.6-1.4 0-2.9-2.2-5.8-8.2l-4-8.2 2.2-1.3c9.4-5.2 25-10 33-10.2 3.6-.1 3.7 0 2.8 2.4zm16.6 1.5c3.2 1.6 7.3 4.1 8.9 5.5 2.9 2.4 2.9 2.5 1.1 3.7-7 4.1-16.6 17.4-16.6 22.8 0 1.5 4.7 4.2 11.5 6.5 1.8.7 1.6.9-1.5 2.2-8.4 3.6-20.1 3.8-33 .7-2.3-.5-2.3-.4.6 1.5 5.4 3.7 14.2 6.1 22 6.1 11.4 0 17.1-2.6 33.4-15.3 7.3-5.7 6.3-6.1 16.3 6.8 4.5 5.9 6.4 9.1 5.5 9.3-.7.3-3.2 1.3-5.6 2.3-4 1.7-4.2 2-3 3.9 2.4 3.9 7.3 6.2 12.8 5.9 4.8-.3 5.2-.1 7 2.9 3.7 6.1 2.3 21.6-2.7 30.2l-2.7 4.5-3.9-8-3.8-8 .5 4.7.6 4.8-7.2-7.5c-3.9-4.2-10.3-9.9-14.2-12.9-7.8-5.8-21.4-14.1-22.1-13.4-.2.2 4.1 4.9 9.7 10.3 24.7 24.5 39.3 50.3 44.7 78.8.8 4.6.8 4.7-1.8 4.7-2 0-3.3-1.1-5.6-4.8-8.9-14.1-36.9-49-59-73.2-6.7-7.4-14.3-16-16.7-19-5.5-6.8-18.2-25-17.7-25.4.2-.2 3.9-1.9 8.1-4 12.2-5.8 20.8-15.8 22.5-26.3.5-2.8 1-3.3 3.3-3.3 1.5 0 5.3 1.3 8.6 3zm-114.1 2.7c2.5 13.6 15.1 24.2 34.5 29.2l7.5 1.9.3-2.2c.2-1.2-.2-4.2-.7-6.7-.9-4-.8-4.6 1.2-6.2 5.4-4.3 5.2-4.4 10.2 6 5.9 12.5 8.8 16.9 20.8 32.2 11.3 14.3 11.3 14.2-1.3 14.9-5 .3-9.6-.1-14-1.3-7.1-1.8-21.2-8.1-26.1-11.6-5.5-3.9-4.3-1 2.4 5.5 11.6 11.4 25.1 16.4 46.9 17.5l12.8.6 11.5 14.5c28.9 36 45.6 68.1 50 95.7.4 2.4.5 4.3.2 4.3-.2 0-2.4-2.6-4.8-5.8-8.4-11.2-12.8-15.7-46.4-47.5-39.9-37.7-81.1-78.7-98.2-97.7-13.8-15.4-30.3-35-30.3-36.1 0-.8 19.9-10.6 22.1-10.8.4-.1 1 1.6 1.4 3.6zM680.1 378c4.1 1.6 7.5 3 7.7 3 .1 0 .2.4.2 1 0 .5-.6 1-1.3 1-4.1 0-20.7 15.7-20.7 19.6 0 1.6 12.9 7.2 20.8 9 3.7.9 8.8 1.4 11.4 1.1l4.8-.4.5 3.6c2.3 14.2 6.5 25.3 13.2 34.3l3.6 4.9-1.2 6.8c-.6 3.8-1.4 11.4-1.7 17-.4 6.3-1.1 10.1-1.8 10.1-.6 0-3.4-1.1-6.2-2.4-5.9-2.8-12-7.9-17.6-14.9-2.6-3.3-3.8-4.3-3.8-3 .1 7.2 11.4 20 22.7 25.7 7.1 3.5 7.2 3.6 7.8 8.3 2.8 20.2 12.6 43.5 26 62.1 7.8 10.9 22.4 27.1 31.7 35.3 4.6 4.1 8.2 7.6 8.1 8-.1.3-6.2 9.8-13.6 21-7.3 11.2-18.5 28.7-24.7 38.9-6.3 10.2-11.5 18.6-11.6 18.8-.1.2-2.9-1.6-6.2-4-3.4-2.4-12.1-8-19.5-12.4l-13.5-7.9-.7-7.5c-2.8-32.7-3.6-41.6-4.6-49-4.1-33-7.9-51.4-17-80.4-2.7-8.7-5.8-19.8-6.9-24.8-2.2-9.7-6.5-35.7-7.4-45.2l-.6-5.8 3.4 3c3.7 3.2 10.6 5 14.5 3.7 1.6-.5 2.1-1.5 2.1-3.8 0-9.7-6.7-18.5-15.8-20.7l-5.2-1.2v-8.6c0-10.5 1.4-24.2 3.6-34 1.4-6.6 1.8-7.4 4.7-8.6 1.8-.8 4.1-2.1 5.2-3 1.1-.8 2.1-1.6 2.1-1.6.1 0 3.5 1.3 7.5 3zm54.1 27.9c5.8 2.2 13 4.6 16 5.2 2.9.6 5.4 1.2 5.5 1.3.1.1-.4 6-1.2 13.2-3.1 28.4-4 47.1-4 83.7 0 20.7-.1 37.7-.2 37.7s-1.8-2.9-3.8-6.4C735.2 520.4 729 494.3 729 467c0-12.9 1.9-31.5 4.4-42.3.7-3.1 1.2-5.7 1-5.7-.8 0-6.4 12.1-8.9 19.5-1.6 4.4-3.1 8.4-3.5 8.8-1.1 1.3-6.6-14.7-8-23.2-1.7-10.2-.8-15.7 3.3-19.9 1.7-1.8 3.9-3.1 4.7-2.8.8.2 6.3 2.2 12.2 4.5zm78.8 6.2c0 2.8-15.8 94.5-19.7 113.9-.8 4.1-1.7 15.3-2 24.9-.6 19.7-.7 19.7-6.8 6.6-6.6-14.1-11.9-35.7-14.6-59.5-1.3-11.3-1.4-65.3-.1-70.7.5-2.2 2.4-4.3 6.7-7.6 5.7-4.1 6.6-4.4 14.5-5.1 4.7-.4 11.2-1.3 14.5-2 3.3-.7 6.3-1.4 6.8-1.5.4 0 .7.4.7 1zm-290 35.4c2.7 4.7 5 8.7 5 9 0 .2-1.3 1.7-2.9 3.3a18 18 0 00-4 6.8c-1.5 5.4-1.4 11.4.2 11.4 3.3 0 9.1-2.4 12.1-5l3.3-2.9 11.5 17.2c13.2 19.6 21.9 31.4 32.6 44 4.1 4.8 7.2 9 6.9 9.3-.8.8-18.5-8.4-26.2-13.6-18.4-12.5-34.2-29.4-47.1-50.3l-4.2-6.9 2.3-4.6c3.7-7.4 5.8-15.9 5.3-21.3-.3-2.7-.4-4.9-.2-4.9s2.6 3.8 5.4 8.5zm3 65.5c0 .5-.2 1-.4 1-.3 0-.8-.5-1.1-1-.3-.6-.1-1 .4-1 .6 0 1.1.4 1.1 1zm13.8 15c24.2 22.4 57.4 35.6 100.5 40.3 10.5 1.1 10.7 1.2 10.7 3.7 0 3.3 2.8 50 3.6 61.3l.7 8.8-7.9-3.7c-34.5-15.9-77.2-33.2-121.4-49.1-2.5-.9-4.8-1.9-5.2-2.2-.4-.3 0-3.3.7-6.6 2.7-11.2 4.5-28.9 4.5-43.5 0-8.1.3-15 .7-15.3 2.1-2.1 5.9-.3 13.1 6.3zm-26.8-4c0 .5-.4 1-1 1-.5 0-1-.5-1-1 0-.6.5-1 1-1 .6 0 1 .4 1 1z"/><path d="M316.1 301c-7.2 1.5-16.2 6.3-22.1 11.7l-5.5 5.1 3 3.1c4 4.3 13.4 8.8 19.9 9.6 7 .9 15.4-.9 24.1-5.1 6.5-3.1 18.7-11.5 19.3-13.2.4-1.2-10.4-7.4-16.3-9.4-6.5-2.2-16.6-3-22.4-1.8zM440.1 285.7c-2.2 4.2-1.7 8.5 1.3 12 2.4 2.7 2.6 2.7 4.2 1.1 2.5-2.4 2.3-7.8-.5-11.6-2.5-3.6-3.6-3.9-5-1.5zM454.4 293.4c-4.1 1.8-7.8 6.5-6.4 8.1 1.9 2.2 6.9 3.7 10.3 3.1 3.7-.7 10.7-6 10.7-8.1 0-3.3-9.7-5.3-14.6-3.1zM442.6 304.9c-2.2 4.1-2 7.3.5 10.5 2.4 3 3.7 3.3 5.5.8 2.5-3.2 1-9.8-3-13.1-1.2-1-1.7-.7-3 1.8zM485.2 310.7c-3.5 1.7-7.2 5.7-7.2 7.9 0 1.8 5.2 4.4 9 4.4 4 0 7.7-2 11.8-6.3 3.6-3.8 3.3-4.5-2.7-6.6-4.5-1.5-7-1.4-10.9.6zM481.4 336.8c-4.5 2.1-8.5 6.7-10.9 12.5-1.9 4.7-2 4.4 1.5 6.2 3.7 1.9 11.2 1.9 14.8.1 6-3.2 15.8-17.5 13.1-19.2-.7-.4-4.1-.9-7.8-1.1-5.1-.3-7.6.1-10.7 1.5zM872.6 289.2c-11.6 13.1-15.6 26.3-12.5 41 1.1 5.2 5.1 14.4 8.1 18.7 1.5 2.1 1.5 2.1 5-1.7 5.1-5.6 9.5-12.4 13-19.9 4-8.5 4.9-19.3 2.3-27.6-1.6-5.2-7.8-14.7-10.1-15.4-.7-.2-3.3 2-5.8 4.9zM654.6 288.6c-2 5.3.7 12.6 5.3 14.2 3.7 1.3 4.1.9 4.1-4.6 0-3.7-.6-5-3.4-7.8-3.8-3.8-5.1-4.2-6-1.8zM647.5 304.9c-4.3 1.9-10.6 10.3-9 11.9.4.4 4 .7 8 .7 6.3 0 7.7-.3 9.8-2.3 3.4-3.2 5.3-8 3.9-9.4-1.4-1.4-10.1-2-12.7-.9zM691 440.6c-6.8 2.9-11 9.4-9.6 15 .8 3.1 3.7 3.1 9.6.1 5-2.5 7.6-6.2 8.6-12.5.6-4.1.6-4.2-2.2-4.2-1.6.1-4.5.8-6.4 1.6zM672 462.2c-5.2 2.7-9 7.8-9 12.2 0 4.8 1.2 6 5.3 5.2 7.1-1.3 11.7-7.2 11.7-15.1 0-5.4-1.2-5.7-8-2.3zM687.5 499.6c-5.4 2.8-5.8 3.6-3.2 7.2 6.4 8.6 14.2 10.6 24.9 6.4 4.1-1.7 4.1-2.8.2-7.2-6.8-7.5-15.2-9.9-21.9-6.4zM550.6 57.2c-7.5 26.3-1.7 48.5 17 65.7 3.5 3.2 9.6 7.5 13.4 9.5l6.9 3.7.5-2.3c2.5-11.5 3-15.9 3-26.8 0-22.4-5.9-35.9-20.2-46.7-4.7-3.5-15.3-8.3-18.3-8.3-.4 0-1.4 2.4-2.3 5.2zM810 58c0 4.1 3.7 17.7 6.4 23.5 6 13 15.5 19.7 28.1 19.9 3.9 0 8.3-.3 9.9-.7l2.9-.8-.6-7.2c-1.3-17.6-11.2-30.1-26.9-34.3-6.3-1.6-19.8-1.9-19.8-.4zM686 68.8c0 5.3 3.1 13.3 6.6 17.1 3.8 4.3 10.5 6.7 15.5 5.6 3.4-.8 3.7-3.3 1.4-11.1-2.4-8.3-11-14.4-20.1-14.4-3.1 0-3.4.3-3.4 2.8zM887 68.6c-10.7 2.9-18 7.8-21.8 14.8-1.9 3.5-2.4 16.8-.6 18.6 1.3 1.3 11.5-.5 16.4-3 8.9-4.6 13.9-13.6 14-24.8 0-8.1.3-7.8-8-5.6zM414.1 77.9c-10.4 10.3-13.4 19.9-9.1 29.8 1.2 2.8 3.2 6.1 4.4 7.2l2.3 2.1 4.9-3.6c8.9-6.6 13-14.5 12.2-23.8-.5-5.8-5.4-17.6-7.3-17.6-.8 0-4 2.7-7.4 5.9zM724.3 75.1c-6.6 1.9-11.7 10.1-9.8 15.8.6 1.9 1.2 2.1 4.3 1.5 8-1.4 12.4-5.9 13.7-14.2.7-4.1.6-4.2-2.2-4.1-1.5 0-4.2.5-6 1zM441.6 76.6c-.3.9-.6 4.3-.6 7.6 0 7.3 2.6 12.6 7.9 16.1 2.9 1.9 9.3 4.7 10.7 4.7.1 0 .6-2.5.9-5.5 1.4-10.5-2.5-19.2-9.9-22.6-5-2.3-8.2-2.4-9-.3zM908.1 83.1c-4.3 5.9-5.6 11.3-4.2 16.8 1.3 4.7 4.2 9.6 7.4 12.2 2 1.6 2.2 1.6 3.8-.5 3-3.8 5.7-10.1 6.4-14.6.7-5.5-2.2-12-7.2-15.8l-3.2-2.4-3 4.3zM354.8 95c-5.5 1.9-12.8 5.7-12.8 6.7 0 .2 2 3.1 4.5 6.3 15.9 20.7 34.9 25.8 52 14 2.5-1.7 4.5-3.7 4.5-4.4 0-2.1-5.6-10.1-10.1-14.5-7.3-7-12.9-9.4-23.4-9.8-7.1-.3-10.2.1-14.7 1.7zM705.5 96.7c-7.3 3.8-10.6 9.7-9.1 15.8.8 3.2 3.7 3.3 9.1.2 4.8-2.7 7.5-7.6 7.5-13.5 0-3.7-.3-4.2-2.2-4.2-1.3.1-3.6.8-5.3 1.7zM852.8 108.8c-10.1 4-15.1 8-18.3 14.6-2.4 4.9-2.7 6.5-2.2 11.5.2 3.2 1 6.7 1.6 7.9.9 1.8 1.5 1.9 5.3 1.1 14.5-3.3 22.8-13.2 22.8-27.6 0-7-.6-10.3-1.9-10.3-.3.1-3.6 1.3-7.3 2.8zM945.6 110.5c-9.2 12-8.5 25.4 1.8 35.4l3.4 3.3 3.1-4.2c9.9-13.7 8.9-29.1-2.5-36.1l-3.1-1.9-2.7 3.5zM987.6 143.2c-14.5 14.6-19.7 25.9-19.7 43.3 0 10.3 2.1 19.4 6.7 29.3l3.5 7.7 8.9-9.2c11.2-11.4 18.2-22.1 21.5-32.5 3.9-12.3 3.2-25.8-2-35.8-2.5-4.9-7.7-12-8.7-12-.5 0-5.1 4.2-10.2 9.2zM296.8 141.3c-8.1 6.8-10 15.9-5.1 24.8 1.4 2.7 3 4.9 3.5 4.9.4 0 2.6-1.6 4.8-3.6 5.1-4.7 6.7-9.5 5.1-16-1-4-4.7-12.4-5.4-12.4-.1 0-1.4 1-2.9 2.3zM1057.4 142.6c-3.2 1.9-7.8 5.4-10.1 7.6-9.8 9.6-11.9 25.6-5.3 40.4l1.9 4.4 4-2.3c16.8-9.6 26.5-23.9 24.6-36.5-1-7.2-6-17.2-8.5-17.2-.3 0-3.3 1.6-6.6 3.6zM338.8 154.2c-1.7 1.2-1.7 1.5-.2 4.3 2.2 4.4 6.4 8.5 10.1 10.1 4.1 1.8 13.3 1.9 13.3.2 0-2.2-6.2-10.4-9.6-12.7-4.1-2.8-11.2-3.8-13.6-1.9zM1094.3 163.6c-4.9 10.8-2 21 8.3 28.3l4.4 3.3 2.2-4.9c3.1-7 3.6-16.9 1-21.9-2.4-4.8-4.6-6.9-9.5-8.9l-3.8-1.6-2.6 5.7zM647 161.7c0 4.2 2.5 10 5.5 13 2.8 2.8 4 3.3 7.9 3.3 4.4 0 4.6-.1 4.6-2.8 0-1.5-.9-4.6-2-7-1.5-3.3-2.9-4.7-6.2-6.2-5.5-2.5-9.8-2.6-9.8-.3zM708.2 168.4c-5.9 6.4-7.5 10.1-7.5 17.1 0 6.2 2.2 12.4 6.3 17.5l2 2.5 4.6-4.9c2.5-2.7 5.4-6.7 6.5-8.8 2.7-5.3 3.5-12.9 1.9-17-1.8-4.3-6.8-10.8-8.5-10.8-.7 0-3.1 2-5.3 4.4zM275.3 167.3c-4.8 1.8-5.5 2.9-3.7 5.5 3.6 5.2 11.3 6.8 17.8 3.7 3.5-1.7 3.5-1.7 2.1-4.6-2.8-5.3-9.3-7.1-16.2-4.6zM298.8 173.2c-3.6 1.3-3.5 2.9.3 6.7 3.6 3.6 6.5 4.5 12 3.8 5.9-.8 7.2-2.2 5.4-5.8-2.8-5.2-10.6-7.3-17.7-4.7zM1144.1 178.5c-5.5 6.3-7.5 11.3-7.5 19 0 5.8.5 7.9 2.8 12.2 1.6 2.8 4.4 6.6 6.3 8.5l3.5 3.3 2.4-3c4.3-5.2 8.7-15.3 9.2-20.9.6-6.9-2.6-14.4-8.1-19.1-2.2-1.9-4.4-3.5-4.8-3.5-.4 0-2.1 1.6-3.8 3.5zM667.2 183.7c2.3 8.6 7.1 13.3 13.3 13.3 4.9 0 5.8-1.1 4.6-5.6-2.1-7.7-6.9-11.4-15-11.4h-3.9l1 3.7zM657.5 181.6c-.6.1-2.7.5-4.8.9-7.4 1.2-14.6 10.5-14.7 18.7 0 3.5.2 3.8 2.8 3.8 4.7 0 12.9-2.9 16.2-5.6 4.2-3.6 6-7.4 6-12.7 0-3.9-.3-4.5-2.3-4.9-1.2-.2-2.7-.3-3.2-.2zM490 186c-10.4 10.4-11.1 21.2-2.3 34.7 1.4 2.1 1.7 2.1 4.2.8 4.4-2.2 9.9-9 10.7-13 1.1-6-.1-13.1-3.5-20-1.8-3.6-3.6-6.5-4.2-6.5-.5 0-2.7 1.8-4.9 4zM197.9 204.4c-8.8 6.9-14.9 18-14.9 27 0 6.4 3.6 16.3 8.2 22.9l2 2.7 5-2.7c6.6-3.6 12.4-10.4 14.3-16.6 1.8-6 1.9-9.8.4-16.9-1.1-5.4-7.7-20.8-8.8-20.8-.3 0-3.1 2-6.2 4.4zM872.4 206.9c-8.9 4.1-14.4 13.2-14.4 23.8 0 4.1.2 4.4 2.3 3.7 4.1-1.3 9.6-4.4 13.2-7.6 5.3-4.6 7.7-9.8 7.3-16.1-.4-6.1-1.9-6.8-8.4-3.8zM1174 210.9c-6.7 2.2-18 10.7-18 13.6 0 2.1 12.3 13.1 18 16.1 4.9 2.6 6.5 2.9 15 2.9 9 0 9.9-.2 17-3.8 4.1-2.1 8.8-4.9 10.5-6.4l2.9-2.6-7.1-6.7c-9.7-9.1-18.3-13.3-28.3-13.7-4.1-.1-8.6.1-10 .6zM255.6 217.7c-.3.4-.6 2.7-.6 5.3 0 5.7 2.7 10.1 8.8 14.4 3.6 2.6 4.5 2.8 5.2 1.6 2.7-4.2-.7-14.2-6.1-18.2-3.9-2.9-6.4-3.9-7.3-3.1zM1143.3 231.2c-6.6 6.9-8.6 11.8-8.1 20.2.4 7.6 2.8 13.6 7.5 19.1l2.6 2.9 3.9-4.4c6.2-7.1 10.1-16.1 10.1-22.8 0-3.4-.7-7-1.7-8.9-2.1-4.2-7.5-10.3-9-10.3-.6 0-3 1.9-5.3 4.2zM157.5 248.9c-2.8 1-6.1 2.3-7.3 3-2.1 1.1-2.1 1.4-.8 4 2 3.8 8.8 9.7 13.3 11.7 5.4 2.2 14.7 1.5 20.8-1.7 2.7-1.3 5-2.9 5.2-3.5.2-.6-1.1-3.3-2.9-6-6-8.9-16.6-11.7-28.3-7.5zM200.2 260.9c-2.9 1-5.5 2.1-5.8 2.4-.8.8 2.2 6.2 5.8 10.2 7 8 18.8 10.3 29 5.7 5.2-2.3 5.3-2.6 1.4-10-4.8-9.2-17.4-12.7-30.4-8.3zM141.6 272.5c-.3.9-.6 4.2-.6 7.2 0 5.2.3 5.8 4.3 9.8 5.1 5 13.4 8.6 14.8 6.4 2.4-3.8.3-13.6-4-18.2-4.7-5.2-13.3-8.2-14.5-5.2zM1015 305.4c-10.4 8.3-13.7 19-8.7 28.6 1.2 2.4 2.7 4.5 3.3 4.7 2.2.7 10.9-6.3 13.8-11 2.5-4 3-5.9 3-11-.1-6-3.2-15.7-5.1-15.7-.4 0-3.3 2-6.3 4.4zM129.4 314.5c-2.7 6.6-.7 15.2 4.7 20.2 2.7 2.4 11.1 6.8 15 7.8 2.5.6 2.6.4 3.2-4 1.8-12.5-4.6-22.4-16.8-26l-4.6-1.4-1.5 3.4zM1062.2 332.2c-9.7 3.6-14.4 10.7-12.8 19.3.6 2.8 1.2 3.5 2.9 3.5 3-.1 9.8-3.3 11.9-5.6 2.6-3 4.8-8.9 4.8-13.1 0-5.9-.8-6.4-6.8-4.1zM1115.7 338.4c-4.5 1.6-8 4.7-10.9 9.4-2.5 4-1.8 5.1 5.5 8.3 10.8 4.8 21 2.2 29.1-7.3l3.6-4.1-2.8-1.7c-8.3-5-18.4-6.9-24.5-4.6zM238 343.1c-5.3 1.6-5.6 2.4-2.6 6.9 4 6.1 9.9 8.4 19 7.7 7.2-.5 10.6-1.4 10.6-2.6 0-1.7-6.6-8.4-10.2-10.2-4.8-2.4-12-3.2-16.8-1.8zM109.2 366.2c.8 16 9.6 28.5 25.6 36.7 5.8 2.9 20.3 6.9 29 7.9 7.2.8 7.2.8 7.2-1.6 0-1.3-.7-5.2-1.6-8.6-4-15.7-14.9-29.8-27.8-36.1-8.1-4-18.3-6.5-27-6.5h-5.9l.5 8.2zM1149.6 376.9c-3.2 3.3-4 4.8-4.4 9.1-.5 5.4 2 13 4.3 13 1.6 0 7-5.9 8.9-9.7.9-1.8 1.6-4.5 1.6-6 0-3.4-3.2-9.7-5.1-10.1-.8-.1-3.2 1.5-5.3 3.7zM74 395.6c-.8.1-3.6.6-6.2.9-4.6.6-4.8.7-4.8 3.9 0 1.8.7 5.6 1.6 8.5 3.9 13.1 18.7 20.6 36.9 18.6 5.9-.6 6.5-.9 6.5-3 0-7.7-9.2-21.5-16.9-25.5-2.8-1.4-15.2-4.5-15.5-3.9-.1.1-.8.3-1.6.5zM1159.6 398.5c-5.9 2.1-7.2 3.7-5.7 7.3 1.6 3.9 7.9 10.2 11.8 11.8 5.4 2.3 16.6 1.5 21.2-1.5 3.2-2-9.8-16.1-16.6-18-4.8-1.4-5.9-1.3-10.7.4zM1112.7 400.9c-7.2 6.3-8.6 15.7-3.6 23.8l2.3 3.6 4.8-5.2c7.7-8.4 8.7-17.1 2.4-23l-2.4-2.2-3.5 3zM276.9 404.7c-.5 14.9 4.3 24.6 15.6 31.8 5.6 3.6 16.7 7.9 23.3 9l4.4.7-.7-4.8c-2.9-21.1-13.5-33.4-32.7-37.9-8.9-2.1-9.8-2-9.9 1.2zM1142.2 405.6c-1.8 1.4-3.9 3.9-4.7 5.4-2.8 5.3-1.2 17 2.3 17 .9 0 3.7-2.2 6.2-4.9 5.7-5.8 6.8-10 4.4-16-1.9-4.8-3.6-5.1-8.2-1.5zM1075.7 409.2c-6.1 5.8-8.3 11.3-7.4 18.1.7 4.8 4.8 13.2 6.5 13.2 2.1 0 10-8.5 12.2-13 1.1-2.3 2-5.9 2-8 0-4.3-3-11.3-6-14-1.8-1.6-2.1-1.5-7.3 3.7zM48.2 431.2c-4 7.6-3.3 14.3 2 20.4 3 3.4 11.7 10 12.2 9.2 1.4-1.9 2.9-7.9 3-12.1.1-7.1-2.8-12.3-8.8-16.5-5.7-3.8-6.9-3.9-8.4-1zM991.4 446.2c-10.7 11.8-13.3 27.7-6.5 41.1 1.7 3.4 4 7.3 5.1 8.6 2 2.3 2.1 2.3 4.1.5 1.1-1 3.9-5.6 6.2-10.3 3.5-7.1 4.2-9.6 4.6-15.8.5-10.1-1.2-15.4-6.8-21.5l-4.6-5-2.1 2.4zM20.9 472.3c-3 11.4 1.3 20 13.1 26 4.1 2 8.6 3.8 10 4 2.4.2 2.5 0 2.8-7.5.2-6.2-.1-8.5-1.9-12.2-3.3-7.1-10.7-12.3-19.6-13.9-3.1-.6-3.3-.5-4.4 3.6zM1032.7 474.2c-7.6 10-7.5 22.6.2 32.5l2 2.5 3.1-4.9c3.1-4.9 6-13 6-16.7 0-4.4-2.3-9.9-5.4-13.3l-3.3-3.6-2.6 3.5zM1197.9 477.3c-1.8 1.2-4 3.5-4.9 5-1.4 2.6-1.4 2.9 1 4.7 3.9 2.9 10.4 4.2 15 3 3.9-1 12-7.6 12-9.7 0-1.8-9.7-5.3-14.8-5.3-3.4 0-5.9.7-8.3 2.3zM184.2 491.7c-2.2.4-2.3.8-1.7 4.1 2.2 11.6 10.3 18.2 22.4 18.2 6.9 0 7.5-.9 5.6-8.3-1.5-5.8-5.4-10.2-10.9-12.1-4.6-1.6-11.9-2.5-15.4-1.9zM1230.7 497.1c-8.1 6.7-10.3 17.4-5.7 27.1 1.2 2.7 2.7 4.8 3.3 4.8 2.3 0 11.5-10.7 13.2-15.4 1.6-4.2 1.7-5.4.6-9.4-1.3-5-4.6-10.2-6.4-10.2-.7 0-2.9 1.4-5 3.1zM49.7 506.8c-.4.5-.9 2.7-1.3 4.8-1.6 10.4 5.9 20.6 18.1 24.3 10.7 3.3 11 3.2 10.6-5.4-.5-10.1-7.3-19.8-15.6-22.2-6.7-1.9-11.2-2.5-11.8-1.5zM24.4 508.1c-12 3.5-21.2 17-23.8 35.1l-.7 4.8h5.8c19.6 0 32.7-10.4 36.3-28.6 1.6-8 1.1-10.6-2-11.5-3.5-1-11.9-.9-15.6.2zM1243.4 527.4c-4.8 1.5-10.4 4.7-10.4 5.8 0 .5 1.1 3 2.4 5.6 3 6 11 13.5 16.2 15.3 5.7 2 15.9 1.5 22.7-1.1l5.7-2.2-2.2-4.1c-3.4-6.1-12.3-15.3-17.1-17.6-5.7-2.7-12.3-3.3-17.3-1.7zM1108.9 533.7c-.8 2.7-1.4 8.6-1.4 13.3 0 7.6.3 9.1 3 13.9 1.6 2.9 4.8 6.9 7 8.8 3.6 3.2 15.1 9.3 17.4 9.3 1.5 0 3.1-9.4 3.1-18.5 0-10.4-2.4-17.6-7.7-22.7a33.6 33.6 0 00-16.4-8.2c-3.6-.6-3.6-.6-5 4.1zM1223 534.7c-4.1 2.7-9.1 7.6-10.6 10.5-1.9 3.6-1.8 13.8.2 18.8.9 2.2 1.8 4 2.1 4 .8 0 6.6-4.2 9.6-6.9 7.1-6.4 9-16.2 4.7-23.9-1.3-2.3-2.6-4.2-3-4.2-.3 0-1.7.7-3 1.7zM165.3 544.1c-1.8.5-3.4 1.3-3.7 1.8-.3.5.7 2.6 2.3 4.8 4.9 6.7 12.8 8.7 20.7 5.1 2.8-1.3 2.9-1.9.9-5.9-3.2-6.1-11.3-8.4-20.2-5.8zM875.9 551.8a50.6 50.6 0 00-6.7 10.1c-2.1 4.6-2.4 6.4-2 13 .5 8 2.9 14 8.4 20.6l2.5 3 4-4.5c8.6-9.7 12.9-23.5 10-32.3-1.3-3.9-6.5-10.9-9.8-13.2-2-1.4-2.4-1.2-6.4 3.3zM1175.5 554.1c-.8 3.8.2 11 2.2 16.1 3 7.6 14.3 14.8 23.1 14.8h3.5l-.6-7.6c-1.4-16.3-10.1-26.3-22.9-26.4-4.4 0-4.7.2-5.3 3.1zM937.1 561.9c-7.5 14.1-7.4 27 .3 38.5 3.6 5.4 15.1 15.6 17.6 15.6 1.1 0 6.6-13.3 7.9-19.1 1.5-6.5 1.3-15.9-.5-21.1-2.6-7.8-10.4-15.2-19.5-18.7-2.6-.9-2.8-.7-5.8 4.8zM1064.8 560.7c-2.5 2.9-4.8 8-4.8 10.8 0 3.6 2.3 8.6 5.3 11.3l2.5 2.4 2.7-4.6c3.6-6.1 4.1-11.2 1.7-15.5-1-1.9-2.8-4.1-3.9-4.8-1.7-1.1-2.2-1.1-3.5.4zM133.1 570.4c-4.5 1.6-10 7.1-13.4 13.4l-2.7 5 3.1 1.1c4.1 1.4 12.9 1.4 16.6 0 5.5-2 13.2-11.7 13.3-16.6 0-1.2-8.9-4.4-11.9-4.2-.9 0-3.1.6-5 1.3zM1082.5 579c-4 .9-6.5 2.3-9.3 5.2l-2.2 2.5 2.1 2.6c3.6 4.6 10.4 8 16.2 8 5.2 0 14.6-3.7 16.3-6.5.5-.7-.8-2.5-3.2-4.6-7-6.1-13.9-8.6-19.9-7.2zM279.7 581.6c-.4.4-.7 3.7-.7 7.3 0 8.1 2.3 13.4 8 19 3.9 3.8 15.1 10 20.9 11.7l2.4.6-.5-7.9c-.7-9.3-3.4-15.9-9.1-21.6-5.5-5.5-18.8-11.3-21-9.1zM1063.2 591.4c-4 4.6-4.9 9.4-2.8 15.1 2.4 6 4.1 7.3 6.7 4.9 3.1-2.8 5.9-8.8 5.9-12.7 0-3.3-3.4-9.7-5.6-10.4-.6-.2-2.5 1.2-4.2 3.1zM990.7 591.3c-4.7 7.2-5.9 17.5-2.8 24.4 2 4.2 8.3 11.3 12.1 13.3 1.9 1 2.3.6 4.7-4.7 3.8-8.4 4.2-18.3 1.1-24.3-2-4-10.2-11-12.8-11-.4 0-1.4 1-2.3 2.3zM194 604.2c0 9.2 5.9 15.6 16.6 17.8 7.8 1.6 9 1.2 8.6-3-1-11.4-7.8-18.2-19.6-19.6l-5.6-.7v5.5zM165 618.5c0 7.5 5.3 12.1 16.3 14.1 3.7.6 3.7.6 3.7-2.7 0-1.8-.9-5.2-2.1-7.5-2.3-4.9-8.2-8.4-14.2-8.4H165v4.5zM123.4 617.4c-.4.9.1 3.7 1.1 6.2 1.2 3.3 2.6 4.9 5.3 6.3 4.4 2.2 11.8 3.6 12.5 2.4 1.2-2-1.6-9.2-4.8-12.3-2.7-2.6-4.5-3.4-8.4-3.8-4.1-.4-5.2-.1-5.7 1.2zM263.4 625.6c-1 4 .3 9.5 3.3 13.8 2.8 4 10.4 8.9 15.7 10.2l2.9.7-.6-5.5c-1-10.2-6.2-17-15.6-20.3-5.4-1.9-4.9-2-5.7 1.1zM1133.2 630.2c.3 5.3.9 7.3 3.2 10.3 3.3 4.2 9.5 7.4 14.5 7.5h3.4l-.7-5.7c-.8-6.5-3.9-12.7-7.8-15.6-1.5-1.1-4.9-2.2-7.9-2.5l-5.2-.5.5 6.5zM371.5 632.6c-2.8 4.3-4.5 10.4-4.5 16.3 0 10.9 7.1 20.9 20.8 29.1l6.7 4 1.3-2.6c2.3-4.4 4.2-15.6 3.5-20.9-1.3-10.8-8.2-19.9-19.2-25.4-3.3-1.7-6.2-3.1-6.5-3.1-.2 0-1.1 1.2-2.1 2.6zM146.3 633.6c-3.5 1.5.8 10.7 6.1 13.3 1.6.7 5.2 1.4 8 1.5 4.9.1 5.1 0 4.8-2.4-.5-3.5-3.2-7.9-6.3-10.3-2.6-1.9-10.2-3.2-12.6-2.1zM137 636.6c-10.2 3.4-13.8 8.1-14.6 19.1-.7 8.9.1 10.1 5.5 8.3 11-3.6 17.8-15.8 14.1-25.4-.9-2.5-2-2.9-5-2zM411.3 637.6c-.4 1.1-.8 4.6-.8 7.9 0 7.8 3.5 14 10.2 18.3 4.7 2.9 12.4 5.8 17.3 6.4 2.4.3 2.5 0 2.8-5 .9-15.2-8.8-26.7-24.3-28.8-3.8-.6-4.6-.4-5.2 1.2zM353 682c-2.4 4.6-2.7 12.8-.6 16.9 2.8 5.4 15.2 15.1 17.5 13.7.5-.3 1.4-2.6 2-5 3.1-12.4-1-21.5-12.1-27.2L355 678l-2 4zM333.6 702.1c-5.8 4.6-7.1 12-3.5 19.8 3.2 7.1 3.8 7.5 6.6 4.9 3.4-3.2 6.3-9.1 6.3-12.9 0-3.4-3.2-11-5.4-12.8-1-.8-2-.6-4 1zM288.7 704.6c-1.6 1.6-.7 9.2 1.4 11.8 2.2 2.8 8.7 6.6 11.4 6.6 2.1 0 2-6.5-.3-10.9-2.5-5.1-10.3-9.7-12.5-7.5zM237.4 709.2c-4.3 5.2-6.4 10.7-6.4 17.4 0 8.1 3.5 15 11.8 23.4 7.4 7.3 7.1 7.4 12.1-3 2.2-4.6 2.6-6.9 2.6-14 0-6.4-.5-9.4-1.9-12-2-3.6-13-15-14.5-15-.5 0-2.2 1.5-3.7 3.2zM144.5 716.4c-3.3 1.4-7.7 6.1-10.1 10.7-1.3 2.7-1.3 3 .3 3.7 1 .4 4.3.7 7.3.7 6.7-.1 11-2.7 14-8.5 1.1-2.2 2-4.2 2-4.5 0-.9-6.6-3.5-8.7-3.5-1 .1-3.2.7-4.8 1.4zM303.5 728c-1.4 6.4 5.3 13.7 13.2 14.3 2.6.2 2.8 0 2.6-3.5-.4-5.8-2.9-9.7-7.6-11.9-5.9-2.6-7.4-2.4-8.2 1.1zM286 728.2c-4 2.7-7.9 9.9-8.7 15.8l-.6 4.3 6.2-.6c6.9-.6 9.8-2.1 13.6-7.1 2.4-3.1 4.9-12.8 3.7-14.1-.3-.3-2.9-.5-5.7-.5-3.7 0-6.1.6-8.5 2.2zM199.8 734.3c-5.5 5.3-7.4 11.2-5.8 18.4 1.2 5.2 5.3 13.4 8 15.8 1.6 1.5 2.1 1.2 5.9-3.1 5.5-6.3 7.8-13.7 6.1-20.2-1.3-5.3-3.8-9.7-7.3-13l-2.4-2.3-4.5 4.4zM130.2 753.5c.3 3.3 1.3 6.7 2.4 8.3 2.7 3.7 9.8 7 16.7 7.8l5.7.7v-3.4c-.1-6.9-6-15.4-12.3-17.8-1.6-.6-5.1-1.1-7.9-1.1h-5l.4 5.5zM158.5 771.9c-.9 1.5 1.2 9.2 3.2 12 3.3 4.4 9.8 7.1 17.5 7.1h6.8l-.6-2.8c-2.9-11.9-9.2-17.2-20.3-17.2-3.3 0-6.2.4-6.6.9zM143.9 776.4c-6 2.1-9.6 5.4-12.4 10.9-4 8.4-4.7 25.7-1 25.7 3.2 0 12.4-4.2 16.2-7.5 5.8-4.9 8.4-11.1 8.4-19.7 0-9.5-.5-10.8-4.4-10.8-1.8.1-4.8.7-6.8 1.4z"/></svg>